<?xml version="1.0" encoding="UTF-8" standalone="no"?>
<!-- Created with Inkscape (http://www.inkscape.org/) -->

<svg
   version="1.1"
   id="svg2561"
   width="341.33334"
   height="341.33334"
   viewBox="0 0 341.33334 341.33334"
   sodipodi:docname="oscarsactualyurt_blue.svg"
   inkscape:version="1.2.1 (9c6d41e410, 2022-07-14, custom)"
   xmlns:inkscape="http://www.inkscape.org/namespaces/inkscape"
   xmlns:sodipodi="http://sodipodi.sourceforge.net/DTD/sodipodi-0.dtd"
   xmlns="http://www.w3.org/2000/svg"
   xmlns:svg="http://www.w3.org/2000/svg">
  <defs
     id="defs2565" />
  <sodipodi:namedview
     id="namedview2563"
     pagecolor="#ffffff"
     bordercolor="#000000"
     borderopacity="0.25"
     inkscape:showpageshadow="2"
     inkscape:pageopacity="0.0"
     inkscape:pagecheckerboard="0"
     inkscape:deskcolor="#d1d1d1"
     showgrid="false"
     inkscape:zoom="2.3027343"
     inkscape:cx="155.25022"
     inkscape:cy="170.66667"
     inkscape:window-width="1920"
     inkscape:window-height="995"
     inkscape:window-x="0"
     inkscape:window-y="0"
     inkscape:window-maximized="1"
     inkscape:current-layer="svg2561" />
  <path
     style="display:inline;fill:#5b7ba1;fill-opacity:1;stroke-width:1.33333"
     d="m 126.93265,290.76145 c 0.36641,-29.13745 0.61794,-32.10263 2.94067,-34.66667 2.46892,-2.72541 3.6102,-2.80385 40.79335,-2.80385 37.18315,0 38.32443,0.0784 40.79335,2.80385 2.32273,2.56404 2.57425,5.52922 2.94068,34.66667 l 0.40068,31.86281 H 170.66667 126.53196 Z M 84.66667,318.99356 C 52.023024,316.04078 29.0246,310.92808 22.956752,305.27501 l -2.95675,-2.75463 v -69.48804 c 0,-66.63691 0.09773,-69.39959 2.382131,-67.33225 8.688736,7.8632 44.374065,13.99389 98.284537,16.88514 84.36321,4.52447 180.9912,-3.34445 197.14996,-16.05494 l 3.51671,-2.76624 v 68.85109 c 0,43.16258 -0.49544,69.77683 -1.32788,71.33227 -3.27132,6.11251 -36.12483,13.23201 -75.61838,16.38685 l -6.94624,0.5549 -0.38709,-40.99446 c -0.36008,-38.13476 -0.56427,-41.19011 -2.92707,-43.79912 -2.51101,-2.77267 -3.23477,-2.80465 -63.46001,-2.80465 -60.22224,0 -60.94913,0.0321 -63.46002,2.80424 -2.3484,2.59273 -2.59027,5.88848 -3.20665,43.69556 l -0.66666,40.89132 z m 30.66667,-155.12671 c -45.302925,-2.68694 -76.255173,-7.49102 -88.259536,-13.69872 -9.352482,-4.83635 -11.599866,-2.56594 50.104,-50.61748 40.539716,-31.570078 57.531536,-44.071715 58.053186,-42.712317 0.40563,1.057067 3.5946,3.209038 7.0866,4.782158 5.15308,2.321427 9.62936,2.964228 23.76277,3.412372 19.77866,0.627144 30.11318,-0.98282 37.206,-5.796143 l 4.75444,-3.226451 56.55259,44.108751 c 32.56456,25.39907 56.28831,44.79741 55.92958,45.73228 -1.961,5.11029 -24.94756,11.21707 -55.18963,14.66208 -39.83731,4.53804 -105.33778,6.0024 -150,3.35347 z M 147.74107,50.092611 c -12.21987,-3.289772 -12.92513,-7.262262 -1.95804,-11.028773 5.28984,-1.816728 11.05127,-2.355232 24.88364,-2.325802 18.08543,0.03848 26.50601,1.432269 31.37453,5.193172 2.5956,2.005092 2.59118,2.057263 -0.38986,4.586741 -1.65843,1.407219 -6.03796,3.206819 -9.7323,3.999111 -9.01598,1.933585 -36.39618,1.670524 -44.17797,-0.424449 z"
     id="path3038"
     inkscape:label="path3038" />
</svg>
